PathFileType	4	(X/Y/Z)	../Python\walking\Walking21\task.trc
DataRate	CameraRate	NumFrames	NumMarkers	Units	OrigDataRate	OrigDataStartFrame	OrigNumFrames
200.000000	200.000000	4	30	mm	200.000000	59	474
Frame#	Time	CLAV			STRN			RASI			LASI			PE01			RTH1			RTH2			RTH3			RTB1			RTB3			RHEE			RD5M			RTOE			LTH2			LTH3			LTB1			LTB2			LTB3			LHEE			LTOE			LD5M			RBAK			LTH1			RTB2			C7			PE03			LPSI			PE02			RPSI			T10			
		X1	Y1	Z1	X2	Y2	Z2	X3	Y3	Z3	X4	Y4	Z4	X5	Y5	Z5	X6	Y6	Z6	X7	Y7	Z7	X8	Y8	Z8	X9	Y9	Z9	X10	Y10	Z10	X11	Y11	Z11	X12	Y12	Z12	X13	Y13	Z13	X14	Y14	Z14	X15	Y15	Z15	X16	Y16	Z16	X17	Y17	Z17	X18	Y18	Z18	X19	Y19	Z19	X20	Y20	Z20	X21	Y21	Z21	X22	Y22	Z22	X23	Y23	Z23	X24	Y24	Z24	X25	Y25	Z25	X26	Y26	Z26	X27	Y27	Z27	X28	Y28	Z28	X29	Y29	Z29	X30	Y30	Z30	

60	0.295	-989.1649780273442	1255.4208984375	204.0321655273439	-929.4354858398442	1069.069946289063	198.8511047363282	-957.4182128906255	878.398315429688	333.1644897460939	-971.2221069335942	857.538452148438	107.4577560424805	-1159.261962890625	950.4046020507817	239.0094146728517	-986.1430664062505	584.9561767578127	369.0739746093751	-955.7116699218755	514.153747558594	348.3642883300782	-937.956176757813	572.1336669921877	358.0433349609376	-933.1480102539067	290.7876281738282	323.4769287109376	-947.5103149414067	213.5219726562501	315.4804687500001	-1039.712158203125	27.06368827819826	249.6151885986329	-887.2028808593755	13.87850284576417	310.0829162597657	-851.8197631835942	29.51125526428224	254.9146118164064	-1040.040405273438	535.2601318359377	82.29029846191409	-974.9758911132817	576.127624511719	62.9394340515137	-1133.936645507813	347.9540405273439	94.087760925293	-1192.655029296875	297.6491088867189	113.105323791504	-1144.84326171875	287.3889770507814	104.9859313964844	-1334.355712890625	195.6809082031251	192.1325225830079	-1217.713012695313	63.08855819702151	149.9984588623047	-1256.660034179688	81.6452560424805	114.9476394653321	-1148.144287109375	1250.291748046875	322.3542480468751	-1022.904174804688	592.4693603515627	66.76450347900393	-976.1599731445317	249.6793212890626	334.7161560058595	-1111.586547851563	1348.115234375	220.0504455566407	-1175.205200195313	887.8046875000005	219.8718261718751	-1164.660034179688	910.8906250000005	201.1561279296876	-1171.4150390625	892.7029418945317	270.2220458984376	-1157.498413085938	919.4183959960942	289.7275390625001	-1141.068237304688	1051.377319335938	227.9988250732423	
61	0.3	-982.442504882813	1256.494873046875	203.5606231689454	-922.9512329101567	1070.022094726563	198.3908538818361	-950.9031372070317	878.998168945313	333.4671325683595	-965.0283203125005	858.862426757813	107.5822143554688	-1152.610473632813	951.6767578125005	239.7482452392579	-981.8952636718755	585.484069824219	368.8973693847657	-952.4349975585942	514.277770996094	348.1771850585939	-933.9462890625005	572.0960693359377	357.5923156738282	-931.9758911132817	290.6470336914064	323.2548828125001	-946.703735351563	213.4377441406251	315.3319702148439	-1039.720336914063	27.1561622619629	249.5824737548829	-887.1906738281255	13.87604999542237	310.0867919921876	-851.7780761718755	29.48500442504884	254.8795471191407	-1028.589599609375	536.611999511719	82.221549987793	-964.1716308593755	578.5446777343752	62.77780914306643	-1119.456665039063	348.4929809570314	94.14652252197268	-1177.523315429688	297.378875732422	113.0623168945313	-1129.58056640625	287.7050170898439	104.8378372192383	-1318.216918945313	192.4672241210939	192.0197296142579	-1197.519409179688	63.40893173217776	149.1177673339844	-1237.094604492188	81.02082061767581	114.211898803711	-1140.803588867188	1251.68701171875	322.8954467773439	-1012.392822265625	594.1269531250002	66.73158264160159	-975.1495971679692	249.7558441162111	334.602752685547	-1104.629638671875	1349.288940429688	220.0564422607423	-1168.77001953125	889.198364257813	220.4507141113282	-1158.23583984375	912.200561523438	201.9129638671876	-1164.919799804688	893.9412231445317	270.8128051757814	-1150.909790039063	920.6557006835942	290.4084777832032	-1134.31787109375	1052.622924804688	228.8619689941407	
62	0.305	-975.7511596679692	1257.505493164063	203.0837249755861	-916.501342773438	1070.917236328125	197.9366607666017	-944.399047851563	879.571166992188	333.7608337402345	-958.8392944335942	860.1723022460942	107.7071990966797	-1145.965454101563	952.8837890625005	240.4854125976564	-977.6577758789067	585.9877929687502	368.6815795898439	-949.210815429688	514.368591308594	347.960662841797	-929.9572143554692	572.0224609375002	357.0986328125001	-930.8206176757817	290.5116577148439	323.0033569335939	-945.9089355468755	213.3554687500001	315.1553649902345	-1039.728759765625	27.24589729309083	249.5420837402345	-887.1765136718755	13.88004207611085	310.0847473144532	-851.739135742188	29.46147918701173	254.8433380126954	-1017.091125488282	538.0095214843752	82.17366790771487	-953.3046264648442	580.9937744140627	62.70751571655276	-1104.977416992188	348.8393554687501	94.17753601074222	-1162.303466796875	296.8333740234376	112.9847793579102	-1114.221557617188	287.8448791503907	104.6942214965821	-1301.777954101563	188.8780517578126	191.8380279541016	-1177.063842773438	63.49423980712893	148.2835388183594	-1217.251953125	80.09577178955081	113.5216140747071	-1133.503784179688	1253.02099609375	323.4164123535157	-1001.839416503907	595.817810058594	66.72473144531253	-974.1549682617192	249.8321228027345	334.4612426757814	-1097.704711914063	1350.39990234375	220.0459442138673	-1162.340087890625	890.5310668945317	221.0141754150392	-1151.820068359375	913.453247070313	202.6536254882814	-1158.431396484375	895.1079711914067	271.3889465332032	-1144.33056640625	921.812622070313	291.072967529297	-1127.592041015625	1053.808715820313	229.7084350585939	
63	0.31	-969.0895385742192	1258.44921875	202.6031036376954	-910.0830688476567	1071.75341796875	197.4908599853517	-937.903930664063	880.1173706054692	334.0461730957032	-952.647338867188	861.4627075195317	107.8376388549805	-1139.327514648438	954.0208129882817	241.2152709960939	-973.4445190429692	586.464294433594	368.4314880371095	-946.046508789063	514.4278564453127	347.7193298339845	-926.0017700195317	571.911560058594	356.5719299316407	-929.6859741210942	290.3808898925782	322.7297363281251	-945.1296386718755	213.2749938964845	314.9568481445314	-1039.737426757813	27.33174514770509	249.494110107422	-887.161010742188	13.89024448394776	310.0764465332032	-851.7045898437505	29.44073486328126	254.8066558837892	-1005.561828613282	539.4443359375002	82.14836120605472	-942.3992309570317	583.4661254882815	62.72303771972659	-1090.499633789063	348.9814758300782	94.1733093261719	-1146.996459960938	296.0078735351564	112.8670120239258	-1098.77001953125	287.8016662597657	104.5557708740235	-1285.038818359375	184.9325714111329	191.5878143310547	-1156.367919921875	63.35957717895511	147.4924621582032	-1197.148315429688	78.89700317382815	112.8700332641602	-1126.244384765625	1254.288818359375	323.9167480468751	-991.2600708007817	597.531677246094	66.74402618408206	-973.1816406250005	249.9077301025392	334.2955322265626	-1090.811279296875	1351.443969726563	220.019500732422	-1155.911376953125	891.7960815429692	221.5576629638673	-1145.40869140625	914.6426391601567	203.3724975585939	-1151.947021484375	896.197875976563	271.9458923339845	-1137.757934570313	922.8857421875005	291.717498779297	-1120.888916015625	1054.929809570313	230.534637451172	
